# xmcd
#
# Track frame offsets: 
#        150
#        39075
#        60705
#        102582
#
# Disc length: 2166 seconds
#
# Revision: 2
# Processed by: cddbd v1.5.1PL2 Copyright (c) Steve Scherf et al.
# Submitted via: ExactAudioCopy v0.95b4
#
DISCID=2c087404
DTITLE=Various Artist - Hyena Sampler
DYEAR=2002
DGENRE=
TTITLE0=Les McCann - Maleah
TTITLE1=Rahsaan Roland Kirk - You Did It, You Did It
TTITLE2=Cannonball Adderley - Work song
TTITLE3=Eddie Harris - Chicago Serenade
EXTD=
EXTT0=
EXTT1=
EXTT2=
EXTT3=
PLAYORDER=
